<?xml version="1.0" standalone="no"?>
<!DOCTYPE svg PUBLIC "-//W3C//DTD SVG 20010904//EN"
 "http://www.w3.org/TR/2001/REC-SVG-20010904/DTD/svg10.dtd">
<svg version="1.0" xmlns="http://www.w3.org/2000/svg"
 width="343.000000pt" height="343.000000pt" viewBox="0 0 343.000000 343.000000"
 preserveAspectRatio="xMidYMid meet">
<metadata>
Created by potrace 1.11, written by Peter Selinger 2001-2013
</metadata>
<g transform="translate(0.000000,343.000000) scale(0.100000,-0.100000)"
fill="#000000" stroke="none">
<path d="M92 2248 l3 -573 100 0 100 0 5 383 5 384 195 -267 c107 -147 234
-321 282 -386 l88 -119 90 0 90 0 0 575 0 575 -100 0 -100 0 0 -386 c0 -340
-2 -385 -15 -374 -8 7 -137 180 -287 386 l-273 374 -93 0 -92 0 2 -572z"/>
<path d="M1322 2438 c4 -349 7 -390 26 -460 26 -97 53 -148 105 -206 163 -177
546 -155 681 41 84 122 96 202 96 650 l0 357 -99 0 -100 0 -3 -387 c-3 -331
-6 -394 -20 -431 -28 -74 -66 -120 -125 -148 -47 -23 -62 -26 -124 -22 -80 6
-136 37 -176 97 -52 78 -56 108 -61 514 l-4 377 -100 0 -100 0 4 -382z"/>
<path d="M2510 2245 l0 -575 100 0 100 0 0 236 0 235 42 -3 41 -3 129 -185
c70 -102 144 -206 163 -232 l35 -48 120 0 c66 0 120 2 120 5 0 2 -42 62 -93
132 -51 71 -130 179 -175 240 l-82 113 63 28 c80 37 125 77 163 144 26 48 29
62 29 148 0 76 -4 104 -21 141 -28 59 -81 112 -147 146 -92 47 -136 53 -369
53 l-218 0 0 -575z m445 386 c108 -49 139 -179 61 -257 -40 -40 -93 -55 -209
-57 l-92 -2 -3 168 -2 167 102 0 c78 0 113 -5 143 -19z"/>
<path d="M90 1460 l0 -60 1645 0 1645 0 0 60 0 60 -1645 0 -1645 0 0 -60z"/>
<path d="M520 909 l0 -361 148 4 c179 6 238 24 318 100 77 73 98 128 99 259 0
102 -1 109 -35 175 -69 135 -174 184 -396 184 l-134 0 0 -361z m307 274 c87
-26 156 -99 177 -187 11 -46 8 -151 -5 -196 -19 -63 -79 -125 -146 -150 -43
-16 -178 -37 -255 -40 -5 0 -8 136 -8 301 l0 302 93 -7 c50 -4 115 -14 144
-23z"/>
<path d="M1538 910 l-3 -360 213 0 212 0 0 30 0 30 -175 0 -175 0 0 140 0 140
173 2 172 3 0 30 0 30 -172 3 -173 2 0 125 0 125 175 0 175 0 0 30 0 30 -210
0 -210 0 -2 -360z"/>
<path d="M2310 1263 c0 -5 55 -167 122 -360 l123 -353 35 0 35 0 132 343 c73
188 135 350 139 360 5 14 0 17 -32 17 l-39 0 -84 -223 c-46 -122 -97 -257
-114 -300 -16 -43 -33 -75 -37 -70 -4 4 -51 140 -105 301 l-97 292 -39 0 c-21
0 -39 -3 -39 -7z"/>
</g>
</svg>
