<svg version="1" xmlns="http://www.w3.org/2000/svg" width="905.333" height="905.333" viewBox="0 0 679.000000 679.000000"><path d="M185.4 15.4c-.5.6-5.6 6.5-11.4 13.1-5.8 6.6-10.7 12.2-11 12.5-.3.3-3.5 3.9-7 8-3.6 4.1-6.8 7.7-7.1 8-.3.3-3.9 4.3-8 9-10.1 11.7-13.2 15.1-14.9 17-.8.9-4.2 4.7-7.5 8.5-7.6 8.9-11.6 13.4-13.5 15.4-.9.9-4.5 5-8 9.1-3.6 4.1-6.9 8-7.5 8.6-2.8 3.1-14.9 16.8-28.1 31.9-8.2 9.3-15.7 17.9-16.6 18.9-1.5 1.7-1.6 2.2-.4 3.5.7.9 9.6 11.5 19.6 23.6 10 12.1 19.9 24 22 26.5 2.1 2.5 13.3 16 25 30 11.6 14 22.2 26.6 23.3 28 1.2 1.4 4.2 5 6.7 8s4.7 5.7 5 6c.3.3 5.9 7 12.5 15s12.9 15.6 14.1 17c1.2 1.4 5.7 6.8 10 12 4.4 5.2 8.7 10.4 9.6 11.5.9 1.1 6.5 7.8 12.4 15 6 7.1 11.3 13.5 11.9 14.1.5.7 2.6 3.1 4.4 5.4 1.9 2.3 4 4.8 4.5 5.4.6.6 2.7 3.1 4.7 5.6 2 2.5 4.5 5.5 5.5 6.7 1.1 1.2 3.7 4.5 5.9 7.2 2.2 2.8 4.3 5 4.6 5.1.3 0 1.6-2.6 2.9-5.8 1.3-3.1 3.4-8 4.6-10.7 1.2-2.8 10.2-23.7 19.9-46.5 21.4-50.2 19.8-46.5 22.4-52.2 1.1-2.6 2.1-5 2.1-5.3 0-.3.9-2.4 2-4.8 5.7-12.2 22.8-53.3 22.4-53.7-.3-.3-16.4-.5-35.9-.5-33.2 0-35.5-.2-37.4-1.9-1.2-1.1-2.1-3.1-2.1-4.7s22.1-46.8 54.5-111.3c29.9-59.7 54.3-108.7 54.2-108.8-.1 0-38.2-.2-84.8-.3-59.2-.1-84.8.2-85.5.9zM434.1 17.4c-1 1.7-5.3 9.8-9.6 18.1-4.3 8.2-9.5 18.1-11.5 22-2.1 3.8-6.4 12.2-9.8 18.5-3.3 6.3-8.1 15.5-10.7 20.5-2.6 4.9-7.9 15.1-11.8 22.5-3.9 7.4-10.4 19.8-14.4 27.5-4 7.6-7.3 14.1-7.3 14.2 0 .2 19.1.3 42.4.3 54.3 0 52-1.2 36.8 19.6-4.4 6-14.8 20.3-23.1 31.9-8.4 11.5-15.7 21.7-16.4 22.6-.7.8-2.3 3-3.6 4.9-1.3 1.8-13.3 18.3-26.5 36.6-13.3 18.3-24.8 34.3-25.6 35.5-.8 1.2-2.4 3.4-3.6 4.8-1.8 2.3-14.2 19.4-43.6 60.1-5.3 7.4-10.1 13.9-10.5 14.5-3.2 3.8-29.3 40.7-29.3 41.3 0 .6 3 4.2 12.4 15.2 1.1 1.4 4.1 5 6.6 8s5.5 6.6 6.6 8c1.2 1.4 7 8.3 12.9 15.5 5.9 7.1 11.9 14.4 13.4 16.1 1.4 1.7 9.1 11.1 17.1 20.7 8 9.7 14.7 17.6 15 17.6.3 0 6.8-7.6 14.5-17 7.7-9.3 14.9-18 16-19.3 2.1-2.6 2.6-3.1 9.5-11.6 2.5-3 4.7-5.7 5.1-6 .4-.4 18.8-22.4 23.7-28.5 1.5-1.8 6.9-8.3 13.4-16 .9-1.1 9-10.8 17.9-21.5 8.9-10.7 17.3-20.9 18.8-22.5 1.4-1.7 6.6-8 11.5-14 5-6.1 10.6-12.8 12.5-15.1 2-2.2 6.5-7.6 10.1-12 3.5-4.3 6.7-8.1 7-8.4.3-.3 2.3-2.7 4.5-5.5 2.2-2.7 4.7-5.7 5.5-6.6.8-.8 2.4-2.6 3.5-4 7.5-9 41.3-49.8 42.6-51.4 1-1.1 5.7-6.7 10.5-12.5s10.4-12.5 12.5-15c2-2.5 8.8-10.6 14.9-18 6.2-7.4 12.2-14.6 13.3-16 1.2-1.4 7.8-9.3 14.6-17.5 6.8-8.3 13-15.7 13.7-16.6 1.2-1.3 1.1-1.8-.4-3.5-1-1-8-9.1-15.7-17.9-7.7-8.8-14.2-16.2-14.5-16.5-.3-.3-3.7-4.1-7.5-8.5-3.9-4.4-7.2-8.2-7.5-8.5-.3-.3-3.6-4.1-7.5-8.5-3.8-4.4-7.2-8.2-7.5-8.5-.3-.3-3.6-4.1-7.5-8.5-3.8-4.4-7.5-8.5-8-9.1-.6-.6-3.5-3.9-6.5-7.4-3-3.5-9.3-10.7-14-16-6.7-7.6-19.2-21.8-28.5-32.4-.5-.6-3-3.4-5.5-6.1-2.5-2.8-6-6.8-7.9-9l-3.5-4-28.8-.1-28.8-.1-1.9 3.1zM296 586c-5.6 1-14.4 5.4-18.8 9.4-13 11.8-16.7 30.3-9.2 46.4 12.8 27.4 50.5 30.1 67.8 4.9 5.6-8.1 8.1-20.1 6-29.1-.5-2.3-1.1-4.9-1.3-5.9-.4-2-.7-2.5-5.2-9.4-8-12.2-24.6-19.1-39.3-16.3zm17.5 19.2c7.7 3.9 11.8 10.8 11.7 19.9 0 12.1-8.8 21.3-21.1 21.8-12.8.6-23.1-9.1-23.1-21.7 0-17.3 17.1-27.8 32.5-20zM638 586.4c-17.2 3.9-26.6 18-20.5 30.9 3.2 6.9 10.2 11 25.5 15.1 5.3 1.4 10.7 2.9 12 3.4 3.4 1.3 5.8 4.3 5.4 6.7-.3 2.3-4.1 5.4-6.9 5.6-9.4.7-16.4-2.2-19.1-7.8l-1.9-3.9-8.7-.1c-10.1-.1-10.6.5-7.7 8.3 4.5 12 16.3 19.4 31.3 19.6 10.9.1 18.8-2.5 24.6-8.2 10.5-10.2 9.1-24.7-3.1-32.5-3.1-2-13.7-5.9-19.3-7.1-4.7-.9-12.2-3.8-13.8-5.2-2.4-2.1-2.3-3.4.7-6.2 1.9-1.8 3.9-2.5 8.3-2.7 6.7-.4 9.8.9 12.7 5.4 2 3.1 2 3.1 10.8 3.1h8.8l-.4-3.2c-1.2-9.2-10.2-18.6-20-21-5.7-1.4-13.3-1.5-18.7-.2zM2.2 586.8c-1.5.5-1.6 42.4-.1 49.1 2.4 10.6 9.6 20.4 18.2 24.5 18.3 9 41.9 1.4 49.7-15.9 4-8.9 4.3-11.7 4.5-34.8.1-12.5-.1-22.7-.4-22.8-.3-.1-4.5-.2-9.4-.3l-8.7-.1v10.2c-.1 5.7-.1 15.2-.1 21.3-.1 12.4-1 16.9-4.8 22.2-3.5 5-8.6 7.2-15.4 6.6-6.8-.6-11.3-3.6-14-9.7-1.9-4.2-2.1-6.7-2.3-26.9-.1-12.3-.4-22.6-.8-22.9-.7-.7-14.6-1.1-16.4-.5zM86.8 588c-.2.8-.3 17.9-.3 38l.1 36.5 9.2.3 9.2.3v-23.3l.1-23.3 2.2 2.6c4.4 5.1 8.7 10.2 22.3 26.8l13.9 17h9.3c8.1.1 9.2-.1 9.3-1.7 0-.9.1-18 .2-38 .2-31.5 0-36.2-1.3-36.3-7.8-.5-15.3-.4-16.2.2-.8.5-1.1 7.6-1.1 23.5 0 19.3-.2 22.4-1.4 20.8-.7-1-4.2-5.2-7.7-9.4-3.5-4.1-11.6-13.8-18-21.5l-11.5-13.9-9-.1c-7.2 0-9.1.3-9.3 1.5zM178.8 586.8c-1.7.3-1.8 2.9-1.8 38.3V663h18.6v-23c-.1-12.7.1-23 .4-23 .3 0 3.7 3.9 7.5 8.7 3.9 4.8 7.5 9.1 8 9.7.6.6 5.9 7.1 11.9 14.3l10.8 13.3H253v-37.9c0-29.4-.3-38-1.2-38.3-.7-.2-4.9-.4-9.3-.3l-8 .1-.1 22.2c0 12.2-.3 22.4-.6 22.7-.3.3-3.2-2.7-6.4-6.7-3.3-4-7.1-8.6-8.5-10.3-1.5-1.6-7.3-8.6-13-15.5l-10.4-12.5H188c-4.1 0-8.3.1-9.2.3zM357.3 586.8c-2.1.3-2.3.9-2.3 6-.1 11-.1 64.7-.1 67.4l.1 2.8h18.9c20.9 0 26.9-.8 34.4-4.6 13.6-6.7 21-19.7 20.3-35.8-.4-9.3-3.5-17.2-9.2-23.5-4.8-5.4-13.7-10.4-20.9-11.7-4-.7-36.9-1.2-41.2-.6zm39.3 18.1c8.4 2.3 13.4 9.6 13.4 19.9 0 8-3.1 13.7-9.4 17.7-4.4 2.7-5.7 2.9-16.1 3.3l-11.3.4-.1-20.8c0-12.3.4-21.1.9-21.4 1.6-1 18.2-.3 22.6.9zM442.3 587.4c-.3.4-.6 17.5-.6 38v37.1l29.2.3 29.1.2.1-2.2c.3-5.3 0-14.1-.5-14.5-.3-.3-9.3-.5-20-.5h-19.5V633l3.7-.1c2 0 9.4-.1 16.5-.1 7-.1 12.8-.4 12.8-.7.1-.3.2-3.9.3-7.9l.2-7.2h-33.5l.1-6.4c.1-3.8.6-6.6 1.2-6.8.6-.2 9.5-.3 19.9-.3l18.7.2.1-2.9c.1-3.6.1-9.2 0-12.1l-.1-2.2h-28.6c-15.7 0-28.8.4-29.1.9zM585.7 587c-.9.4-1.2 6.3-1.2 24 .1 26.1-.6 30.5-5.5 34-1.7 1.2-4.4 2-7 2-3.6 0-4.8-.6-7.6-3.6-1.9-2-3.5-4.7-3.6-6.2-.2-4.5-.3-5-1-5.7-.3-.4-3.9-.6-8-.6-10.7 0-10.8 0-10.3 1.3.2.7.6 2.9.8 4.9.7 5.4 4.9 14.1 9 18.3 5.3 5.4 13.3 8.7 20.9 8.7 12 0 20.5-4.3 25.4-12.6 4.7-8.1 5.4-12.9 5.4-40v-25h-8c-4.5 0-8.6.2-9.3.5zM517.3 643.5c-6.1 2.6-8 10.4-4.1 16.1 7.3 10.6 23.9.9 18.4-10.8-2.7-5.5-8.7-7.8-14.3-5.3z"/></svg>